<?xml version="1.0" encoding="utf-8"?>
<!-- Generator: Adobe Illustrator 24.0.1, SVG Export Plug-In . SVG Version: 6.00 Build 0)  -->
<svg version="1.1" id="Capa_1" xmlns="http://www.w3.org/2000/svg" xmlns:xlink="http://www.w3.org/1999/xlink" x="0px" y="0px"
	 viewBox="0 0 100 100" style="enable-background:new 0 0 100 100;" xml:space="preserve">
<style type="text/css">
	.st0{fill:#2E94BC;}
</style>
<g>
	<path class="st0" d="M81.1,64.4c-1,0-1.6,0.7-1.7,1.9c-0.1,1.7-0.2,3.3-0.6,4.9c-2.1,9.3-9.7,16.3-19.3,17.7
		c-9.1,1.4-18.5-3.2-23.2-11.3c-2.7-4.6-3.3-9.7-3.1-14.9c0-0.3,0.2-0.5,0.3-0.7c3-5.4,5.9-10.9,8.8-16.3c0.2-0.3,0.4-0.6,0.6-0.8
		c3.7-2.7,6.1-6.4,7.5-10.8c1.2-3.8,1.5-7.7,1.1-11.6c-0.1-0.6,0.1-1,0.7-1.3c2.1-1,3.2-2.8,3.3-5.1c0.1-3.1-2.1-5.7-5.2-6.2
		c-2.9-0.4-5.8,1.5-6.5,4.4c-0.8,2.9,0.7,5.9,3.6,7.1c0.5,0.2,0.7,0.4,0.7,0.9c0.2,2.3,0.2,4.7-0.2,7c-0.6,4.1-2,7.8-4.9,10.9
		c-7.6,8-20.8,6.2-26.3-3.5c-2.6-4.5-3.1-9.5-2.8-14.6c0-0.5,0.3-0.5,0.6-0.6c2.4-1,3.9-3.3,3.8-5.7c-0.1-3-2.3-5.4-5.3-5.8
		c-2.8-0.4-5.7,1.5-6.5,4.3c-0.8,2.8,0.5,5.8,3.3,7c0.5,0.2,0.6,0.5,0.6,1.1c-0.1,2.8-0.1,5.6,0.5,8.3c1.2,6.1,4,11.2,9.3,14.7
		c0.4,0.2,0.6,0.5,0.7,0.9c2.4,4.4,4.7,8.8,7.2,13.2c1.1,2,2,3.9,1.5,5.8c0,2.3,0.1,4.1,0.5,6c3,14,15.8,23,30,20.9
		C73,90.5,82.8,79.2,82.8,66.4C82.8,65.2,82.2,64.4,81.1,64.4z M47.1,16c0.1-1.4,1.4-2.6,2.8-2.5c1.4,0.1,2.5,1.3,2.4,2.7
		c-0.1,1.4-1.4,2.5-2.7,2.5C48.1,18.6,47,17.3,47.1,16z M9.8,16.1c0-1.4,1.2-2.6,2.6-2.6c1.4,0,2.6,1.2,2.6,2.6
		c0,1.4-1.2,2.7-2.6,2.6C11,18.7,9.8,17.5,9.8,16.1z M25.8,48.1c2.1,0.6,3.9,0.8,5.9,0.8c1.9,0,3.7-0.4,5.7-0.9
		c-2,3.6-3.8,7.1-5.8,10.7C29.6,55.1,27.8,51.7,25.8,48.1z"/>
	<path class="st0" d="M93,40.5c-0.7-6.3-5.8-10.9-12.1-10.8c-5.8,0.1-10.7,4.4-11.5,10.1c-0.8,5.9,2.8,11.6,8.4,13.2
		c0.6,0.2,1.4,0,1.6,0.5c0.3,0.5,0.1,1.2,0.1,1.8c0,0,0,0,0,0c0,0.4,0,0.8,0,1.3c0,1.1,0.6,1.8,1.6,1.9c1,0,1.7-0.7,1.7-1.9
		c0-0.8,0.1-1.6,0-2.4c0-0.6,0.2-0.8,0.7-0.9C89.5,52,93.7,46.3,93,40.5z M81.2,43.7c-1.1,0-2.1-0.9-2.1-2.1c0-1.2,0.9-2.1,2.1-2.1
		c1.1,0,2,0.9,2.1,2C83.3,42.7,82.3,43.6,81.2,43.7z M83.9,49.7c-1,0.3-1,0.3-1-0.7c0-0.2,0-0.4,0-0.6c0-0.2,0-0.4,0-0.6
		c-0.1-0.7,0.1-1,0.8-1.3c2.3-1.1,3.4-3.6,2.8-6.1c-0.5-2.4-2.7-4.2-5.2-4.2c-2.6,0-4.8,1.6-5.4,4.1c-0.6,2.4,0.4,5,2.7,6.1
		c0.8,0.4,1.1,0.9,0.9,1.7c0,0.3,0,0.6,0,0.9c0,1.1,0,1.1-1,0.8c-4-1.4-6.4-5.4-5.7-9.6c0.7-4,4.2-7,8.3-7c4.2,0,7.7,2.9,8.4,7.2
		C90.2,44.3,87.8,48.3,83.9,49.7z"/>
	<path class="st0" d="M56.3,84.1c5,0,9-4.1,9-9.1c0-5-4-9-9-9c-5,0-9,4-9,9C47.3,80.1,51.4,84.1,56.3,84.1z M56.4,69.4
		c3.1,0,5.6,2.6,5.5,5.7c0,3.1-2.6,5.6-5.6,5.6c-3.1,0-5.6-2.6-5.6-5.8C50.8,71.9,53.3,69.4,56.4,69.4z"/>
	<path class="st0" d="M51.1,57.3c0,3.2,2.3,5.8,5.3,5.8c3,0,5.4-2.5,5.4-5.6c0-3.1-2.4-5.7-5.3-5.7C53.6,51.7,51.1,54.2,51.1,57.3z
		 M56.5,55.1c1.1,0,2,1.1,1.9,2.4c-0.1,1.3-1,2.2-2.1,2.2c-1.1-0.1-1.9-1.1-1.9-2.4C54.5,56.1,55.4,55.1,56.5,55.1z"/>
	<path class="st0" d="M67.2,68.1c2.9,0,5.4-2.6,5.4-5.7c0-3.1-2.4-5.7-5.4-5.7c-3,0-5.4,2.6-5.4,5.7C61.8,65.5,64.2,68.1,67.2,68.1z
		 M67.1,60.1c1.1,0,2,1,2,2.3c0,1.2-0.9,2.3-2,2.3c-1.1,0-2-1-2-2.3C65.1,61.2,66,60.1,67.1,60.1z"/>
	<path class="st0" d="M45.5,56.7c-3,0-5.4,2.5-5.4,5.7c0,3.1,2.4,5.7,5.4,5.7c2.9,0,5.4-2.6,5.4-5.7C50.9,59.3,48.5,56.7,45.5,56.7z
		 M45.6,64.7c-1.1,0-2-1-2-2.3c0-1.2,0.9-2.3,2-2.3c1.1,0,2,1,2,2.2C47.5,63.6,46.6,64.7,45.6,64.7z"/>
	<path class="st0" d="M82.8,61.5c0-0.9-0.7-1.7-1.7-1.7c-1,0-1.7,0.7-1.7,1.7c0,0.9,0.7,1.7,1.6,1.7C82,63.2,82.8,62.4,82.8,61.5z"
		/>
</g>
</svg>
